<svg width="240" height="240" viewBox="0 0 240 240" fill="none" xmlns="http://www.w3.org/2000/svg">
<g clip-path="url(#clip0_90_2)">
<rect width="240" height="240" fill="#F5F5F5"/>
<path d="M0 0H240V240H0V0Z" fill="white"/>
<path d="M200 120C200 164.183 164.183 200 120 200C75.8172 200 40 164.183 40 120C40 75.8172 75.8172 40 120 40C164.183 40 200 75.8172 200 120Z" fill="#4FAFE5"/>
<mask id="path-3-outside-1_90_2" maskUnits="userSpaceOnUse" x="80" y="73" width="83" height="87" fill="black">
<rect fill="white" x="80" y="73" width="83" height="87"/>
<path d="M132.76 74.72C142.12 74.72 149.2 78.44 154 85.88C158.8 93.32 161.2 102.68 161.2 113.96C161.2 125.24 158.4 135.52 152.8 144.8C147.28 154 140.88 158.6 133.6 158.6C128.48 158.6 124.72 155.72 122.32 149.96C119.92 144.2 118.36 136 117.64 125.36C114.28 130.08 110.44 135.44 106.12 141.44C97.8 152.96 91.96 158.72 88.6 158.72C87.32 158.72 85.84 157.68 84.16 155.6C82.48 153.52 81.64 150.92 81.64 147.8C81.64 144.6 82.72 134.72 84.88 118.16C87.04 101.52 88.12 88.56 88.12 79.28C88.12 76.32 89 74.84 90.76 74.84C92.52 74.84 94.56 75.88 96.88 77.96C99.28 80.04 100.48 81.96 100.48 83.72C100.48 85.4 99.12 93.84 96.4 109.04C93.76 124.24 92.12 136.16 91.48 144.8C96.36 136.56 101.84 128.96 107.92 122C114.08 114.96 118.48 111.44 121.12 111.44C123.84 111.44 125.72 117.44 126.76 129.44C127.16 133.92 127.92 138.04 129.04 141.8C130.24 145.56 131.84 147.44 133.84 147.44C138.32 147.44 142.2 143.84 145.48 136.64C148.84 129.36 150.52 121.32 150.52 112.52C150.52 102.76 148.36 95.24 144.04 89.96C141.8 87.16 139.32 85.76 136.6 85.76C133.96 85.76 131.68 84.84 129.76 83C127.92 81.16 127 79.56 127 78.2C127 75.88 128.92 74.72 132.76 74.72Z"/>
</mask>
<path d="M132.76 74.72C142.12 74.72 149.2 78.44 154 85.88C158.8 93.32 161.2 102.68 161.2 113.96C161.2 125.24 158.4 135.52 152.8 144.8C147.28 154 140.88 158.6 133.6 158.6C128.48 158.6 124.72 155.72 122.32 149.96C119.92 144.2 118.36 136 117.64 125.36C114.28 130.08 110.44 135.44 106.12 141.44C97.8 152.96 91.96 158.72 88.6 158.72C87.32 158.72 85.84 157.68 84.16 155.6C82.48 153.52 81.64 150.92 81.64 147.8C81.64 144.6 82.72 134.72 84.88 118.16C87.04 101.52 88.12 88.56 88.12 79.28C88.12 76.32 89 74.84 90.76 74.84C92.52 74.84 94.56 75.88 96.88 77.96C99.28 80.04 100.48 81.96 100.48 83.72C100.48 85.4 99.12 93.84 96.4 109.04C93.76 124.24 92.12 136.16 91.48 144.8C96.36 136.56 101.84 128.96 107.92 122C114.08 114.96 118.48 111.44 121.12 111.44C123.84 111.44 125.72 117.44 126.76 129.44C127.16 133.92 127.92 138.04 129.04 141.8C130.24 145.56 131.84 147.44 133.84 147.44C138.32 147.44 142.2 143.84 145.48 136.64C148.84 129.36 150.52 121.32 150.52 112.52C150.52 102.76 148.36 95.24 144.04 89.96C141.8 87.16 139.32 85.76 136.6 85.76C133.96 85.76 131.68 84.84 129.76 83C127.92 81.16 127 79.56 127 78.2C127 75.88 128.92 74.72 132.76 74.72Z" fill="white"/>
<path d="M152.8 144.8L151.944 144.283L151.943 144.286L152.8 144.8ZM122.32 149.96L123.243 149.575L122.32 149.96ZM117.64 125.36L118.638 125.292L118.449 122.5L116.825 124.78L117.64 125.36ZM106.12 141.44L106.931 142.025L106.932 142.024L106.12 141.44ZM84.16 155.6L83.3821 156.228L84.16 155.6ZM84.88 118.16L85.8716 118.289L85.8717 118.289L84.88 118.16ZM96.88 77.96L96.2125 78.7046L96.2187 78.7102L96.2251 78.7157L96.88 77.96ZM96.4 109.04L95.4156 108.864L95.4148 108.869L96.4 109.04ZM91.48 144.8L90.4827 144.726L92.3404 145.31L91.48 144.8ZM107.92 122L107.167 121.341L107.167 121.342L107.92 122ZM126.76 129.44L125.764 129.526L125.764 129.529L126.76 129.44ZM129.04 141.8L128.082 142.085L128.084 142.095L128.087 142.104L129.04 141.8ZM145.48 136.64L144.572 136.221L144.57 136.225L145.48 136.64ZM144.04 89.96L143.259 90.5847L143.266 90.5932L144.04 89.96ZM129.76 83L129.053 83.7071L129.06 83.7146L129.068 83.722L129.76 83ZM132.76 75.72C141.804 75.72 148.556 79.2866 153.16 86.4221L154.84 85.3379C149.844 77.5934 142.436 73.72 132.76 73.72V75.72ZM153.16 86.4221C157.83 93.6616 160.2 102.82 160.2 113.96H162.2C162.2 102.54 159.77 92.9784 154.84 85.3379L153.16 86.4221ZM160.2 113.96C160.2 125.066 157.446 135.166 151.944 144.283L153.656 145.317C159.354 135.874 162.2 125.414 162.2 113.96H160.2ZM151.943 144.286C146.51 153.339 140.379 157.6 133.6 157.6V159.6C141.381 159.6 148.05 154.661 153.657 145.314L151.943 144.286ZM133.6 157.6C131.241 157.6 129.239 156.941 127.548 155.646C125.844 154.341 124.396 152.344 123.243 149.575L121.397 150.345C122.644 153.336 124.276 155.659 126.332 157.234C128.401 158.819 130.839 159.6 133.6 159.6V157.6ZM123.243 149.575C120.905 143.963 119.355 135.889 118.638 125.292L116.642 125.428C117.365 136.111 118.935 144.437 121.397 150.345L123.243 149.575ZM116.825 124.78C113.467 129.498 109.628 134.857 105.308 140.856L106.932 142.024C111.252 136.023 115.093 130.662 118.455 125.94L116.825 124.78ZM105.309 140.855C101.162 146.597 97.6597 150.865 94.7978 153.688C93.3663 155.1 92.1195 156.126 91.0543 156.792C89.9748 157.468 89.1698 157.72 88.6 157.72V159.72C89.7102 159.72 90.8952 159.252 92.1157 158.488C93.3505 157.714 94.7137 156.58 96.2022 155.112C99.1803 152.175 102.758 147.803 106.931 142.025L105.309 140.855ZM88.6 157.72C88.2349 157.72 87.7437 157.571 87.1049 157.122C86.4681 156.674 85.7445 155.97 84.9379 154.972L83.3821 156.228C84.2555 157.31 85.1119 158.166 85.9551 158.758C86.7963 159.349 87.6851 159.72 88.6 159.72V157.72ZM84.9379 154.972C83.4249 153.098 82.64 150.731 82.64 147.8H80.64C80.64 151.109 81.5351 153.942 83.3821 156.228L84.9379 154.972ZM82.64 147.8C82.64 144.682 83.707 134.885 85.8716 118.289L83.8884 118.031C81.733 134.555 80.64 144.518 80.64 147.8H82.64ZM85.8717 118.289C88.0336 101.634 89.12 88.6243 89.12 79.28H87.12C87.12 88.4957 86.0464 101.406 83.8883 118.031L85.8717 118.289ZM89.12 79.28C89.12 77.8664 89.3359 76.9717 89.6395 76.4611C89.8944 76.0324 90.2231 75.84 90.76 75.84V73.84C89.5369 73.84 88.5456 74.3876 87.9205 75.4389C87.3441 76.4083 87.12 77.7336 87.12 79.28H89.12ZM90.76 75.84C92.1435 75.84 93.9478 76.6742 96.2125 78.7046L97.5475 77.2154C95.1722 75.0858 92.8965 73.84 90.76 73.84V75.84ZM96.2251 78.7157C98.5703 80.7482 99.48 82.4132 99.48 83.72H101.48C101.48 81.5068 99.9897 79.3318 97.5349 77.2043L96.2251 78.7157ZM99.48 83.72C99.48 84.0617 99.4055 84.8375 99.2339 86.1143C99.0656 87.3668 98.8121 89.0446 98.4727 91.1509C97.7941 95.3624 96.7753 101.266 95.4156 108.864L97.3844 109.216C98.7447 101.614 99.7659 95.6976 100.447 91.4691C100.788 89.3554 101.044 87.6581 101.216 86.3807C101.385 85.1275 101.48 84.2183 101.48 83.72H99.48ZM95.4148 108.869C92.7727 124.08 91.1263 136.038 90.4827 144.726L92.4773 144.874C93.1137 136.282 94.7473 124.4 97.3853 109.211L95.4148 108.869ZM92.3404 145.31C97.1904 137.12 102.635 129.57 108.673 122.658L107.167 121.342C101.045 128.35 95.5296 136 90.6196 144.29L92.3404 145.31ZM108.673 122.659C111.735 119.158 114.331 116.568 116.465 114.861C117.531 114.008 118.461 113.393 119.257 112.994C120.061 112.593 120.673 112.44 121.12 112.44V110.44C120.247 110.44 119.319 110.727 118.363 111.206C117.399 111.687 116.349 112.392 115.215 113.299C112.949 115.112 110.265 117.802 107.167 121.341L108.673 122.659ZM121.12 112.44C121.379 112.44 121.745 112.568 122.209 113.173C122.681 113.789 123.161 114.787 123.616 116.239C124.523 119.133 125.245 123.546 125.764 129.526L127.756 129.354C127.235 123.334 126.497 118.747 125.524 115.641C125.039 114.093 124.474 112.841 123.796 111.957C123.11 111.062 122.221 110.44 121.12 110.44V112.44ZM125.764 129.529C126.169 134.066 126.94 138.253 128.082 142.085L129.998 141.515C128.9 137.827 128.151 133.774 127.756 129.351L125.764 129.529ZM128.087 142.104C128.706 144.044 129.457 145.595 130.378 146.678C131.32 147.784 132.479 148.44 133.84 148.44V146.44C133.201 146.44 132.56 146.156 131.902 145.382C131.223 144.585 130.574 143.316 129.993 141.496L128.087 142.104ZM133.84 148.44C138.952 148.44 143.079 144.323 146.39 137.055L144.57 136.225C141.321 143.357 137.688 146.44 133.84 146.44V148.44ZM146.388 137.059C149.814 129.635 151.52 121.45 151.52 112.52H149.52C149.52 121.19 147.866 129.085 144.572 136.221L146.388 137.059ZM151.52 112.52C151.52 102.626 149.332 94.8485 144.814 89.3268L143.266 90.5932C147.388 95.6315 149.52 102.894 149.52 112.52H151.52ZM144.821 89.3353C142.456 86.3794 139.715 84.76 136.6 84.76V86.76C138.925 86.76 141.144 87.9406 143.259 90.5847L144.821 89.3353ZM136.6 84.76C134.22 84.76 132.187 83.9411 130.452 82.278L129.068 83.722C131.173 85.7389 133.7 86.76 136.6 86.76V84.76ZM130.467 82.2929C128.663 80.4885 128 79.1379 128 78.2H126C126 79.982 127.177 81.8315 129.053 83.7071L130.467 82.2929ZM128 78.2C128 77.3755 128.309 76.8374 128.957 76.4459C129.686 76.0055 130.908 75.72 132.76 75.72V73.72C130.772 73.72 129.114 74.0145 127.923 74.7341C126.651 75.5026 126 76.7045 126 78.2H128Z" fill="#349AD4" mask="url(#path-3-outside-1_90_2)"/>
</g>
<defs>
<clipPath id="clip0_90_2">
<rect width="240" height="240" fill="white"/>
</clipPath>
</defs>
</svg>
