<svg width="160" height="160" viewBox="0 0 160 160" fill="none" xmlns="http://www.w3.org/2000/svg">
<g clip-path="url(#clip0_35_2)">
<rect width="160" height="160" rx="80" fill="#4FAFE5"/>
<circle cx="80" cy="80" r="80" fill="#4FAFE5"/>
<mask id="path-3-outside-1_35_2" maskUnits="userSpaceOnUse" x="42" y="36" width="83" height="87" fill="black">
<rect fill="white" x="42" y="36" width="83" height="87"/>
<path d="M94.76 37.72C104.12 37.72 111.2 41.44 116 48.88C120.8 56.32 123.2 65.68 123.2 76.96C123.2 88.24 120.4 98.52 114.8 107.8C109.28 117 102.88 121.6 95.6 121.6C90.48 121.6 86.72 118.72 84.32 112.96C81.92 107.2 80.36 99 79.64 88.36C76.28 93.08 72.44 98.44 68.12 104.44C59.8 115.96 53.96 121.72 50.6 121.72C49.32 121.72 47.84 120.68 46.16 118.6C44.48 116.52 43.64 113.92 43.64 110.8C43.64 107.6 44.72 97.72 46.88 81.16C49.04 64.52 50.12 51.56 50.12 42.28C50.12 39.32 51 37.84 52.76 37.84C54.52 37.84 56.56 38.88 58.88 40.96C61.28 43.04 62.48 44.96 62.48 46.72C62.48 48.4 61.12 56.84 58.4 72.04C55.76 87.24 54.12 99.16 53.48 107.8C58.36 99.56 63.84 91.96 69.92 85C76.08 77.96 80.48 74.44 83.12 74.44C85.84 74.44 87.72 80.44 88.76 92.44C89.16 96.92 89.92 101.04 91.04 104.8C92.24 108.56 93.84 110.44 95.84 110.44C100.32 110.44 104.2 106.84 107.48 99.64C110.84 92.36 112.52 84.32 112.52 75.52C112.52 65.76 110.36 58.24 106.04 52.96C103.8 50.16 101.32 48.76 98.6 48.76C95.96 48.76 93.68 47.84 91.76 46C89.92 44.16 89 42.56 89 41.2C89 38.88 90.92 37.72 94.76 37.72Z"/>
</mask>
<path d="M94.76 37.72C104.12 37.72 111.2 41.44 116 48.88C120.8 56.32 123.2 65.68 123.2 76.96C123.2 88.24 120.4 98.52 114.8 107.8C109.28 117 102.88 121.6 95.6 121.6C90.48 121.6 86.72 118.72 84.32 112.96C81.92 107.2 80.36 99 79.64 88.36C76.28 93.08 72.44 98.44 68.12 104.44C59.8 115.96 53.96 121.72 50.6 121.72C49.32 121.72 47.84 120.68 46.16 118.6C44.48 116.52 43.64 113.92 43.64 110.8C43.64 107.6 44.72 97.72 46.88 81.16C49.04 64.52 50.12 51.56 50.12 42.28C50.12 39.32 51 37.84 52.76 37.84C54.52 37.84 56.56 38.88 58.88 40.96C61.28 43.04 62.48 44.96 62.48 46.72C62.48 48.4 61.12 56.84 58.4 72.04C55.76 87.24 54.12 99.16 53.48 107.8C58.36 99.56 63.84 91.96 69.92 85C76.08 77.96 80.48 74.44 83.12 74.44C85.84 74.44 87.72 80.44 88.76 92.44C89.16 96.92 89.92 101.04 91.04 104.8C92.24 108.56 93.84 110.44 95.84 110.44C100.32 110.44 104.2 106.84 107.48 99.64C110.84 92.36 112.52 84.32 112.52 75.52C112.52 65.76 110.36 58.24 106.04 52.96C103.8 50.16 101.32 48.76 98.6 48.76C95.96 48.76 93.68 47.84 91.76 46C89.92 44.16 89 42.56 89 41.2C89 38.88 90.92 37.72 94.76 37.72Z" fill="white"/>
<path d="M114.8 107.8L113.944 107.283L113.943 107.286L114.8 107.8ZM84.32 112.96L85.2431 112.575L85.2431 112.575L84.32 112.96ZM79.64 88.36L80.6377 88.2925L80.4487 85.4996L78.8253 87.7801L79.64 88.36ZM68.12 104.44L68.9307 105.025L68.9315 105.024L68.12 104.44ZM46.16 118.6L45.3821 119.228L45.3821 119.228L46.16 118.6ZM46.88 81.16L47.8716 81.2893L47.8717 81.2887L46.88 81.16ZM58.88 40.96L58.2125 41.7046L58.2187 41.7102L58.2251 41.7157L58.88 40.96ZM58.4 72.04L57.4156 71.8638L57.4148 71.8689L58.4 72.04ZM53.48 107.8L52.4827 107.726L54.3404 108.31L53.48 107.8ZM69.92 85L69.1674 84.3415L69.1669 84.3421L69.92 85ZM88.76 92.44L87.7637 92.5263L87.764 92.5289L88.76 92.44ZM91.04 104.8L90.0816 105.085L90.0844 105.095L90.0873 105.104L91.04 104.8ZM107.48 99.64L106.572 99.2209L106.57 99.2254L107.48 99.64ZM106.04 52.96L105.259 53.5847L105.266 53.5932L106.04 52.96ZM91.76 46L91.0529 46.7071L91.0604 46.7146L91.0681 46.722L91.76 46ZM94.76 38.72C103.804 38.72 110.556 42.2866 115.16 49.4221L116.84 48.3379C111.844 40.5934 104.436 36.72 94.76 36.72V38.72ZM115.16 49.4221C119.83 56.6616 122.2 65.82 122.2 76.96H124.2C124.2 65.54 121.77 55.9784 116.84 48.3379L115.16 49.4221ZM122.2 76.96C122.2 88.0657 119.446 98.1658 113.944 107.283L115.656 108.317C121.354 98.8742 124.2 88.4143 124.2 76.96H122.2ZM113.943 107.286C108.51 116.339 102.379 120.6 95.6 120.6V122.6C103.381 122.6 110.05 117.661 115.657 108.314L113.943 107.286ZM95.6 120.6C93.2409 120.6 91.2391 119.941 89.5481 118.646C87.8445 117.341 86.3965 115.344 85.2431 112.575L83.3969 113.345C84.6435 116.336 86.2756 118.659 88.3319 120.234C90.4009 121.819 92.8391 122.6 95.6 122.6V120.6ZM85.2431 112.575C82.9046 106.963 81.3548 98.8892 80.6377 88.2925L78.6423 88.4275C79.3652 99.1108 80.9354 107.437 83.3969 113.345L85.2431 112.575ZM78.8253 87.7801C75.4666 92.4983 71.6277 97.8568 67.3085 103.856L68.9315 105.024C73.2523 99.0232 77.0934 93.6617 80.4547 88.9399L78.8253 87.7801ZM67.3093 103.855C63.162 109.597 59.6597 113.865 56.7978 116.688C55.3663 118.1 54.1195 119.126 53.0543 119.792C51.9748 120.468 51.1698 120.72 50.6 120.72V122.72C51.7102 122.72 52.8952 122.252 54.1157 121.488C55.3505 120.714 56.7137 119.58 58.2022 118.112C61.1803 115.175 64.758 110.803 68.9307 105.025L67.3093 103.855ZM50.6 120.72C50.2349 120.72 49.7437 120.571 49.1049 120.122C48.4681 119.674 47.7445 118.97 46.9379 117.972L45.3821 119.228C46.2555 120.31 47.1119 121.166 47.9551 121.758C48.7963 122.349 49.6851 122.72 50.6 122.72V120.72ZM46.9379 117.972C45.4249 116.098 44.64 113.731 44.64 110.8H42.64C42.64 114.109 43.5351 116.942 45.3821 119.228L46.9379 117.972ZM44.64 110.8C44.64 107.682 45.707 97.8845 47.8716 81.2893L45.8884 81.0307C43.733 97.5555 42.64 107.518 42.64 110.8H44.64ZM47.8717 81.2887C50.0336 64.6342 51.12 51.6243 51.12 42.28H49.12C49.12 51.4957 48.0464 64.4058 45.8883 81.0313L47.8717 81.2887ZM51.12 42.28C51.12 40.8664 51.3359 39.9717 51.6395 39.4611C51.8944 39.0324 52.2231 38.84 52.76 38.84V36.84C51.5369 36.84 50.5456 37.3876 49.9205 38.4389C49.3441 39.4083 49.12 40.7336 49.12 42.28H51.12ZM52.76 38.84C54.1435 38.84 55.9478 39.6742 58.2125 41.7046L59.5475 40.2154C57.1722 38.0858 54.8965 36.84 52.76 36.84V38.84ZM58.2251 41.7157C60.5703 43.7482 61.48 45.4132 61.48 46.72H63.48C63.48 44.5068 61.9897 42.3318 59.5349 40.2043L58.2251 41.7157ZM61.48 46.72C61.48 47.0617 61.4055 47.8375 61.2339 49.1143C61.0656 50.3668 60.8121 52.0446 60.4727 54.1509C59.7941 58.3624 58.7753 64.2658 57.4156 71.8638L59.3844 72.2161C60.7447 64.6142 61.7659 58.6976 62.4473 54.4691C62.7879 52.3554 63.0444 50.6581 63.2161 49.3807C63.3845 48.1275 63.48 47.2183 63.48 46.72H61.48ZM57.4148 71.8689C54.7727 87.0804 53.1263 99.0378 52.4827 107.726L54.4773 107.874C55.1137 99.2822 56.7473 87.3996 59.3853 72.2111L57.4148 71.8689ZM54.3404 108.31C59.1904 100.12 64.6348 92.5702 70.6731 85.6579L69.1669 84.3421C63.0452 91.3498 57.5296 98.9997 52.6196 107.29L54.3404 108.31ZM70.6726 85.6585C73.7355 82.158 76.331 79.5678 78.4647 77.8609C79.5311 77.0077 80.4608 76.3927 81.2572 75.9944C82.0609 75.5926 82.6726 75.44 83.12 75.44V73.44C82.2474 73.44 81.3191 73.7274 80.3628 74.2056C79.3992 74.6873 78.3489 75.3923 77.2153 76.2991C74.949 78.1122 72.2645 80.802 69.1674 84.3415L70.6726 85.6585ZM83.12 75.44C83.3794 75.44 83.7447 75.5679 84.2089 76.1734C84.6809 76.789 85.1607 77.7868 85.6157 79.239C86.5225 82.1329 87.2454 86.5456 87.7637 92.5263L89.7563 92.3537C89.2346 86.3344 88.4975 81.7471 87.5243 78.641C87.0393 77.0932 86.4741 75.841 85.7961 74.9566C85.1103 74.0621 84.2206 73.44 83.12 73.44V75.44ZM87.764 92.5289C88.1691 97.0661 88.94 101.253 90.0816 105.085L91.9984 104.515C90.9 100.827 90.1509 96.7739 89.756 92.3511L87.764 92.5289ZM90.0873 105.104C90.7063 107.044 91.4566 108.595 92.3785 109.678C93.32 110.784 94.4795 111.44 95.84 111.44V109.44C95.2005 109.44 94.56 109.156 93.9015 108.382C93.2234 107.585 92.5737 106.316 91.9927 104.496L90.0873 105.104ZM95.84 111.44C100.952 111.44 105.079 107.323 108.39 100.055L106.57 99.2254C103.321 106.357 99.6883 109.44 95.84 109.44V111.44ZM108.388 100.059C111.814 92.6353 113.52 84.4504 113.52 75.52H111.52C111.52 84.1896 109.866 92.0847 106.572 99.2209L108.388 100.059ZM113.52 75.52C113.52 65.6264 111.332 57.8485 106.814 52.3268L105.266 53.5932C109.388 58.6315 111.52 65.8936 111.52 75.52H113.52ZM106.821 52.3353C104.456 49.3794 101.715 47.76 98.6 47.76V49.76C100.925 49.76 103.144 50.9406 105.259 53.5847L106.821 52.3353ZM98.6 47.76C96.22 47.76 94.1873 46.9411 92.4519 45.278L91.0681 46.722C93.1727 48.7389 95.7 49.76 98.6 49.76V47.76ZM92.4671 45.2929C90.6627 43.4885 90 42.1379 90 41.2H88C88 42.982 89.1773 44.8315 91.0529 46.7071L92.4671 45.2929ZM90 41.2C90 40.3755 90.3092 39.8374 90.9571 39.4459C91.686 39.0055 92.9081 38.72 94.76 38.72V36.72C92.7719 36.72 91.114 37.0145 89.9229 37.7341C88.6508 38.5026 88 39.7045 88 41.2H90Z" fill="#349AD4" mask="url(#path-3-outside-1_35_2)"/>
</g>
<defs>
<clipPath id="clip0_35_2">
<rect width="160" height="160" rx="80" fill="white"/>
</clipPath>
</defs>
</svg>
